{
  "source": "C:\\Users\\Peter\\Desktop\\stuff\\MIUN\\quantitative_research\\video_compression\\videos\\UVG\\Beauty_1920x1080_120fps_420_8bit_YUV.y4m",
  "output": "C:\\Users\\Peter\\Desktop\\stuff\\MIUN\\quantitative_research\\video_compression\\compressed_videos\\UVG\\av1\\2.5\\Beauty_1920x1080_120fps_420_8bit_YUV_av1.mkv",
  "codec": "av1",
  "ok": "[yuv4mpegpipe @ 000002b9cb105380] Stream #0: not enough frames to estimate rate; consider increasing probesize\nInput #0, yuv4mpegpipe, from 'C:\\Users\\Peter\\Desktop\\stuff\\MIUN\\quantitative_research\\video_compression\\videos\\UVG\\Beauty_1920x1080_120fps_420_8bit_YUV.y4m':\n  Duration: 00:00:05.00, start: 0.000000, bitrate: 2985989 kb/s\n  Stream #0:0: Video: rawvideo (I420 / 0x30323449), yuv420p(progressive), 1920x1080, 120 fps, 120 tbr, 120 tbn\n[out#0/matroska @ 000002b9cb1090c0] Codec AVOption b:a (set bitrate (in bits/s)) has not been used for any stream. The most likely reason is either wrong type (e.g. a video option with no video streams) or that it is a private option of some decoder which was not actually used for any stream.\nStream mapping:\n  Stream #0:0 -> #0:0 (rawvideo (native) -> av1 (libsvtav1))\nPress [q] to stop, [?] for help\nSvt[info]: -------------------------------------------\nSvt[info]: SVT [version]:\tSVT-AV1 Encoder Lib v3.1.0-19-g6ecfe8ec\nSvt[info]: SVT [build]  :\tGCC 15.2.0\t 64 bit\nSvt[info]: LIB Build date: Aug 17 2025 11:37:13\nSvt[info]: -------------------------------------------\n[libsvtav1 @ 000002b9cb10c1c0] Specified chroma sample location center is unsupported on the AV1 bit stream level. Usage of a container that allows passing this information - such as Matroska - is recommended.\nSvt[info]: Level of Parallelism: 5\nSvt[info]: Number of PPCS 93\nSvt[info]: [asm level on system : up to avx2]\nSvt[info]: [asm level selected : up to avx2]\nSvt[info]: -------------------------------------------\nSvt[info]: SVT [config]: main profile\ttier (auto)\tlevel (auto)\nSvt[info]: SVT [config]: width / height / fps numerator / fps denominator \t\t: 1920 / 1080 / 120 / 1\nSvt[info]: SVT [config]: bit-depth / color format \t\t\t\t\t: 8 / YUV420\nSvt[info]: SVT [config]: preset / tune / pred struct \t\t\t\t\t: 4 / PSNR / random access\nSvt[info]: SVT [config]: gop size / mini-gop size / key-frame type \t\t\t: 641 / 16 / key frame\nSvt[info]: SVT [config]: BRC mode / target bitrate (kbps)\t\t\t\t: VBR / 2500 \nSvt[info]: SVT [config]: AQ mode / Variance Boost \t\t\t\t\t: 2 / 0\nSvt[info]: SVT [config]: sharpness / luminance-based QP bias \t\t\t\t: 0 / 0\nSvt[info]: SVT [config]: QP scale compress strength \t\t\t\t\t: 0\nSvt[info]: -------------------------------------------\nOutput #0, matroska, to 'C:\\Users\\Peter\\Desktop\\stuff\\MIUN\\quantitative_research\\video_compression\\compressed_videos\\UVG\\av1\\2.5\\Beauty_1920x1080_120fps_420_8bit_YUV_av1.mkv':\n  Metadata:\n    encoder         : Lavf62.3.100\n  Stream #0:0: Video: av1 (AV01 / 0x31305641), yuv420p(tv, progressive), 1920x1080, q=2-31, 2500 kb/s, 120 fps, 1k tbn\n    Metadata:\n      encoder         : Lavc62.11.100 libsvtav1\n    Side data:\n      cpb: bitrate max/min/avg: 0/0/2500000 buffer size: 2500000 vbv_delay: N/A\nframe=    0 fps=0.0 q=0.0 size=       0KiB time=N/A bitrate=N/A speed=N/A elapsed=0:00:00.51    \nframe=    0 fps=0.0 q=0.0 size=       0KiB time=N/A bitrate=N/A speed=N/A elapsed=0:00:01.26    \nframe=    0 fps=0.0 q=0.0 size=       0KiB time=N/A bitrate=N/A speed=N/A elapsed=0:00:01.83    \nframe=    0 fps=0.0 q=0.0 size=       0KiB time=N/A bitrate=N/A speed=N/A elapsed=0:00:02.36    \nframe=    0 fps=0.0 q=0.0 size=       0KiB time=N/A bitrate=N/A speed=N/A elapsed=0:00:02.96    \nframe=    0 fps=0.0 q=0.0 size=       0KiB time=N/A bitrate=N/A speed=N/A elapsed=0:00:03.50    \nframe=    0 fps=0.0 q=0.0 size=       0KiB time=N/A bitrate=N/A speed=N/A elapsed=0:00:04.03    \nframe=    0 fps=0.0 q=0.0 size=       0KiB time=N/A bitrate=N/A speed=N/A elapsed=0:00:04.55    \nframe=    0 fps=0.0 q=0.0 size=       0KiB time=N/A bitrate=N/A speed=N/A elapsed=0:00:05.30    \nframe=    0 fps=0.0 q=0.0 size=       0KiB time=N/A bitrate=N/A speed=N/A elapsed=0:00:06.01    \nframe=    0 fps=0.0 q=0.0 size=       0KiB time=N/A bitrate=N/A speed=N/A elapsed=0:00:06.95    \nframe=    0 fps=0.0 q=0.0 size=       0KiB time=N/A bitrate=N/A speed=N/A elapsed=0:00:07.57    \nframe=    0 fps=0.0 q=0.0 size=       0KiB time=N/A bitrate=N/A speed=N/A elapsed=0:00:08.10    \nframe=    0 fps=0.0 q=0.0 size=       0KiB time=N/A bitrate=N/A speed=N/A elapsed=0:00:08.60    \nframe=    0 fps=0.0 q=0.0 size=       0KiB time=N/A bitrate=N/A speed=N/A elapsed=0:00:09.12    \nframe=    0 fps=0.0 q=0.0 size=       0KiB time=N/A bitrate=N/A speed=N/A elapsed=0:00:09.64    \nframe=    1 fps=0.1 q=31.0 size=       1KiB time=00:00:00.00 bitrate=N/A speed=   0x elapsed=0:00:10.15    \nframe=    1 fps=0.1 q=31.0 size=       1KiB time=00:00:00.00 bitrate=N/A speed=   0x elapsed=0:00:10.66    \nframe=    1 fps=0.1 q=31.0 size=       1KiB time=00:00:00.00 bitrate=N/A speed=   0x elapsed=0:00:11.19    \nframe=    1 fps=0.1 q=31.0 size=       1KiB time=00:00:00.00 bitrate=N/A speed=   0x elapsed=0:00:11.70    \nframe=    1 fps=0.1 q=31.0 size=       1KiB time=00:00:00.00 bitrate=N/A speed=   0x elapsed=0:00:12.21    \nframe=    1 fps=0.1 q=31.0 size=       1KiB time=00:00:00.00 bitrate=N/A speed=   0x elapsed=0:00:12.73    \nframe=    1 fps=0.1 q=31.0 size=       1KiB time=00:00:00.00 bitrate=N/A speed=   0x elapsed=0:00:13.25    \nframe=    1 fps=0.1 q=31.0 size=       1KiB time=00:00:00.00 bitrate=N/A speed=   0x elapsed=0:00:13.78    \nframe=    1 fps=0.1 q=31.0 size=       1KiB time=00:00:00.00 bitrate=N/A speed=   0x elapsed=0:00:14.29    \nframe=    3 fps=0.2 q=53.0 size=       1KiB time=00:00:00.01 bitrate= 268.8kbits/s speed=0.00113x elapsed=0:00:14.80    \nframe=    3 fps=0.2 q=53.0 size=       1KiB time=00:00:00.01 bitrate= 268.8kbits/s speed=0.00109x elapsed=0:00:15.32    \nframe=    4 fps=0.3 q=56.0 size=       1KiB time=00:00:00.02 bitrate= 179.2kbits/s speed=0.00158x elapsed=0:00:15.85    \nframe=    6 fps=0.4 q=52.0 size=       1KiB time=00:00:00.04 bitrate= 107.5kbits/s speed=0.00255x elapsed=0:00:16.35    \nframe=    7 fps=0.4 q=52.0 size=       1KiB time=00:00:00.05 bitrate=  89.6kbits/s speed=0.00296x elapsed=0:00:16.87    \nframe=    8 fps=0.5 q=52.0 size=       1KiB time=00:00:00.05 bitrate=  76.8kbits/s speed=0.00336x elapsed=0:00:17.38    \nframe=    8 fps=0.4 q=52.0 size=       1KiB time=00:00:00.05 bitrate=  76.8kbits/s speed=0.00326x elapsed=0:00:17.89    \nframe=    9 fps=0.5 q=48.0 size=       1KiB time=00:00:00.06 bitrate=  67.2kbits/s speed=0.00362x elapsed=0:00:18.41    \nframe=   11 fps=0.6 q=52.0 size=       1KiB time=00:00:00.08 bitrate=  53.8kbits/s speed=0.0044x elapsed=0:00:18.93    \nframe=   12 fps=0.6 q=51.0 size=       1KiB time=00:00:00.09 bitrate=  48.9kbits/s speed=0.00471x elapsed=0:00:19.45    \nframe=   13 fps=0.7 q=51.0 size=       1KiB time=00:00:00.10 bitrate=  44.8kbits/s speed=0.00501x elapsed=0:00:19.97    \nframe=   15 fps=0.7 q=50.0 size=       1KiB time=00:00:00.11 bitrate=  38.4kbits/s speed=0.0057x elapsed=0:00:20.47    \nframe=   16 fps=0.8 q=49.0 size=       1KiB time=00:00:00.12 bitrate=  35.8kbits/s speed=0.00595x elapsed=0:00:20.99    \nframe=   17 fps=0.8 q=36.0 size=       1KiB time=00:00:00.13 bitrate=  33.6kbits/s speed=0.00619x elapsed=0:00:21.52    \nframe=   18 fps=0.8 q=47.0 size=       1KiB time=00:00:00.14 bitrate=  31.6kbits/s speed=0.00643x elapsed=0:00:22.04    \nframe=   19 fps=0.8 q=48.0 size=       1KiB time=00:00:00.15 bitrate=  29.9kbits/s speed=0.00665x elapsed=0:00:22.55    \nframe=   19 fps=0.8 q=48.0 size=       1KiB time=00:00:00.15 bitrate=  29.9kbits/s speed=0.0065x elapsed=0:00:23.08    \nframe=   20 fps=0.8 q=38.0 size=       1KiB time=00:00:00.15 bitrate=  28.3kbits/s speed=0.00671x elapsed=0:00:23.59    \nframe=   21 fps=0.9 q=50.0 size=       1KiB time=00:00:00.16 bitrate=  26.9kbits/s speed=0.00691x elapsed=0:00:24.10    \nframe=   22 fps=0.9 q=45.0 size=       1KiB time=00:00:00.17 bitrate=  25.6kbits/s speed=0.0071x elapsed=0:00:24.63    \nframe=   22 fps=0.9 q=45.0 size=       1KiB time=00:00:00.17 bitrate=  25.6kbits/s speed=0.00696x elapsed=0:00:25.13    \nframe=   23 fps=0.9 q=47.0 size=       1KiB time=00:00:00.18 bitrate=  24.4kbits/s speed=0.00715x elapsed=0:00:25.65    \nframe=   23 fps=0.9 q=47.0 size=       1KiB time=00:00:00.18 bitrate=  24.4kbits/s speed=0.00701x elapsed=0:00:26.17    \nframe=   23 fps=0.9 q=47.0 size=       1KiB time=00:00:00.18 bitrate=  24.4kbits/s speed=0.00687x elapsed=0:00:26.68    \nframe=   25 fps=0.9 q=44.0 size=       1KiB time=00:00:00.20 bitrate=  22.4kbits/s speed=0.00735x elapsed=0:00:27.19    \nframe=   26 fps=0.9 q=45.0 size=       1KiB time=00:00:00.20 bitrate=  21.5kbits/s speed=0.00752x elapsed=0:00:27.71    \nframe=   26 fps=0.9 q=45.0 size=       1KiB time=00:00:00.20 bitrate=  21.5kbits/s speed=0.00738x elapsed=0:00:28.23    \nframe=   27 fps=0.9 q=48.0 size=       1KiB time=00:00:00.21 bitrate=  20.7kbits/s speed=0.00754x elapsed=0:00:28.74    \nframe=   28 fps=1.0 q=44.0 size=       1KiB time=00:00:00.22 bitrate=  19.9kbits/s speed=0.00769x elapsed=0:00:29.26    \nframe=   29 fps=1.0 q=49.0 size=       1KiB time=00:00:00.23 bitrate=  19.2kbits/s speed=0.00783x elapsed=0:00:29.78    \nframe=   31 fps=1.0 q=48.0 size=       1KiB time=00:00:00.25 bitrate=  17.9kbits/s speed=0.00825x elapsed=0:00:30.28    \nframe=   32 fps=1.0 q=45.0 size=       1KiB time=00:00:00.25 bitrate=  17.3kbits/s speed=0.00838x elapsed=0:00:30.81    \nframe=   33 fps=1.1 q=34.0 size=       1KiB time=00:00:00.26 bitrate=  16.8kbits/s speed=0.00851x elapsed=0:00:31.33    \nframe=   34 fps=1.1 q=43.0 size=       1KiB time=00:00:00.27 bitrate=  16.3kbits/s speed=0.00864x elapsed=0:00:31.84    \nframe=   34 fps=1.1 q=43.0 size=       1KiB time=00:00:00.27 bitrate=  16.3kbits/s speed=0.0085x elapsed=0:00:32.36    \nframe=   35 fps=1.1 q=47.0 size=       1KiB time=00:00:00.28 bitrate=  15.8kbits/s speed=0.00862x elapsed=0:00:32.87    \nframe=   35 fps=1.0 q=47.0 size=       1KiB time=00:00:00.28 bitrate=  15.8kbits/s speed=0.00849x elapsed=0:00:33.38    \nframe=   36 fps=1.1 q=43.0 size=       1KiB time=00:00:00.29 bitrate=  15.4kbits/s speed=0.0086x elapsed=0:00:33.91    \nframe=   37 fps=1.1 q=50.0 size=       1KiB time=00:00:00.30 bitrate=  14.9kbits/s speed=0.00872x elapsed=0:00:34.42    \nframe=   38 fps=1.1 q=42.0 size=       1KiB time=00:00:00.30 bitrate=  14.5kbits/s speed=0.00882x elapsed=0:00:34.93    \nframe=   39 fps=1.1 q=47.0 size=       1KiB time=00:00:00.31 bitrate=  14.1kbits/s speed=0.00893x elapsed=0:00:35.45    \nframe=   39 fps=1.1 q=47.0 size=       1KiB time=00:00:00.31 bitrate=  14.1kbits/s speed=0.0088x elapsed=0:00:35.97    \nframe=   39 fps=1.1 q=47.0 size=       1KiB time=00:00:00.31 bitrate=  14.1kbits/s speed=0.00868x elapsed=0:00:36.48    \nframe=   40 fps=1.1 q=42.0 size=       1KiB time=00:00:00.32 bitrate=  13.8kbits/s speed=0.00878x elapsed=0:00:37.00    \nframe=   42 fps=1.1 q=42.0 size=       1KiB time=00:00:00.34 bitrate=  13.1kbits/s speed=0.00911x elapsed=0:00:37.51    \nframe=   43 fps=1.1 q=46.0 size=       1KiB time=00:00:00.35 bitrate=  12.8kbits/s speed=0.0092x elapsed=0:00:38.03    \nframe=   44 fps=1.1 q=42.0 size=       1KiB time=00:00:00.35 bitrate=  12.5kbits/s speed=0.00929x elapsed=0:00:38.55    \nframe=   45 fps=1.2 q=48.0 size=       1KiB time=00:00:00.36 bitrate=  12.2kbits/s speed=0.00939x elapsed=0:00:39.05    \nframe=   47 fps=1.2 q=47.0 size=       1KiB time=00:00:00.38 bitrate=  11.7kbits/s speed=0.00969x elapsed=0:00:39.57    \nframe=   48 fps=1.2 q=43.0 size=       1KiB time=00:00:00.39 bitrate=  11.4kbits/s speed=0.00977x elapsed=0:00:40.09    \nframe=   48 fps=1.2 q=43.0 size=       1KiB time=00:00:00.39 bitrate=  11.4kbits/s speed=0.00965x elapsed=0:00:40.60    \nframe=   50 fps=1.2 q=44.0 size=       1KiB time=00:00:00.40 bitrate=  11.0kbits/s speed=0.00993x elapsed=0:00:41.12    \nframe=   51 fps=1.2 q=48.0 size=       1KiB time=00:00:00.41 bitrate=  10.8kbits/s speed=0.01x elapsed=0:00:41.63    \nframe=   51 fps=1.2 q=48.0 size=       1KiB time=00:00:00.41 bitrate=  10.8kbits/s speed=0.00988x elapsed=0:00:42.16    \nframe=   52 fps=1.2 q=44.0 size=       1KiB time=00:00:00.42 bitrate=  10.5kbits/s speed=0.00996x elapsed=0:00:42.66    \nframe=   53 fps=1.2 q=49.0 size=       1KiB time=00:00:00.43 bitrate=  10.3kbits/s speed=0.01x elapsed=0:00:43.18    \nframe=   54 fps=1.2 q=44.0 size=       1KiB time=00:00:00.44 bitrate=  10.1kbits/s speed=0.0101x elapsed=0:00:43.70    \nframe=   54 fps=1.2 q=44.0 size=       1KiB time=00:00:00.44 bitrate=  10.1kbits/s speed=0.00999x elapsed=0:00:44.22    \nframe=   55 fps=1.2 q=48.0 size=       1KiB time=00:00:00.45 bitrate=  10.0kbits/s speed=0.0101x elapsed=0:00:44.72    \nframe=   55 fps=1.2 q=48.0 size=       1KiB time=00:00:00.45 bitrate=  10.0kbits/s speed=0.00995x elapsed=0:00:45.24    \nframe=   56 fps=1.2 q=44.0 size=       1KiB time=00:00:00.45 bitrate=   9.8kbits/s speed=0.01x elapsed=0:00:45.76    \nframe=   56 fps=1.2 q=44.0 size=       1KiB time=00:00:00.45 bitrate=   9.8kbits/s speed=0.0099x elapsed=0:00:46.27    \nframe=   58 fps=1.2 q=43.0 size=       1KiB time=00:00:00.47 bitrate=   9.4kbits/s speed=0.0102x elapsed=0:00:46.79    \nframe=   59 fps=1.2 q=47.0 size=       1KiB time=00:00:00.48 bitrate=   9.3kbits/s speed=0.0102x elapsed=0:00:47.31    \nframe=   59 fps=1.2 q=47.0 size=       1KiB time=00:00:00.48 bitrate=   9.3kbits/s speed=0.0101x elapsed=0:00:47.82    \nframe=   60 fps=1.2 q=42.0 size=       1KiB time=00:00:00.49 bitrate=   9.1kbits/s speed=0.0102x elapsed=0:00:48.35    \nframe=   61 fps=1.2 q=48.0 size=       1KiB time=00:00:00.50 bitrate=   9.0kbits/s speed=0.0102x elapsed=0:00:48.86    \nframe=   63 fps=1.3 q=47.0 size=       1KiB time=00:00:00.51 bitrate=   8.7kbits/s speed=0.0105x elapsed=0:00:49.36    \nframe=   64 fps=1.3 q=42.0 size=       1KiB time=00:00:00.52 bitrate=   8.5kbits/s speed=0.0105x elapsed=0:00:49.88    \nframe=   64 fps=1.3 q=42.0 size=       1KiB time=00:00:00.52 bitrate=   8.5kbits/s speed=0.0104x elapsed=0:00:50.41    \nframe=   65 fps=1.3 q=27.0 size=       1KiB time=00:00:00.53 bitrate=   8.4kbits/s speed=0.0105x elapsed=0:00:50.91    \nframe=   67 fps=1.3 q=45.0 size=       1KiB time=00:00:00.55 bitrate=   8.1kbits/s speed=0.0107x elapsed=0:00:51.43    \nframe=   67 fps=1.3 q=45.0 size=       1KiB time=00:00:00.55 bitrate=   8.1kbits/s speed=0.0106x elapsed=0:00:51.95    \nframe=   68 fps=1.3 q=39.0 size=       1KiB time=00:00:00.55 bitrate=   8.0kbits/s speed=0.0106x elapsed=0:00:52.46    \nframe=   68 fps=1.3 q=39.0 size=       1KiB time=00:00:00.55 bitrate=   8.0kbits/s speed=0.0105x elapsed=0:00:52.98    \nframe=   69 fps=1.3 q=47.0 size=       1KiB time=00:00:00.56 bitrate=   7.9kbits/s speed=0.0106x elapsed=0:00:53.49    \nframe=   70 fps=1.3 q=40.0 size=       1KiB time=00:00:00.57 bitrate=   7.8kbits/s speed=0.0106x elapsed=0:00:54.01    \nframe=   70 fps=1.3 q=40.0 size=       1KiB time=00:00:00.57 bitrate=   7.8kbits/s speed=0.0105x elapsed=0:00:54.53    \nframe=   71 fps=1.3 q=44.0 size=       1KiB time=00:00:00.58 bitrate=   7.7kbits/s speed=0.0106x elapsed=0:00:55.04    \nframe=   71 fps=1.3 q=44.0 size=       1KiB time=00:00:00.58 bitrate=   7.7kbits/s speed=0.0105x elapsed=0:00:55.57    \nframe=   72 fps=1.3 q=40.0 size=       1KiB time=00:00:00.59 bitrate=   7.6kbits/s speed=0.0105x elapsed=0:00:56.09    \nframe=   72 fps=1.3 q=40.0 size=       1KiB time=00:00:00.59 bitrate=   7.6kbits/s speed=0.0104x elapsed=0:00:56.63    \nframe=   74 fps=1.3 q=39.0 size=       1KiB time=00:00:00.60 bitrate=   7.4kbits/s speed=0.0106x elapsed=0:00:57.15    \nframe=   75 fps=1.3 q=44.0 size=       1KiB time=00:00:00.61 bitrate=   7.3kbits/s speed=0.0107x elapsed=0:00:57.67    \nframe=   76 fps=1.3 q=39.0 size=       1KiB time=00:00:00.62 bitrate=   7.2kbits/s speed=0.0107x elapsed=0:00:58.20    \nframe=   77 fps=1.3 q=47.0 size=       1KiB time=00:00:00.63 bitrate=   7.1kbits/s speed=0.0108x elapsed=0:00:58.72    \nframe=   79 fps=1.3 q=45.0 size=       1KiB time=00:00:00.65 bitrate=   6.9kbits/s speed=0.011x elapsed=0:00:59.24    \nframe=   80 fps=1.3 q=42.0 size=       1KiB time=00:00:00.65 bitrate=   6.8kbits/s speed=0.011x elapsed=0:00:59.76    \nframe=   82 fps=1.4 q=41.0 size=       1KiB time=00:00:00.67 bitrate=   6.6kbits/s speed=0.0112x elapsed=0:01:00.27    \nframe=   82 fps=1.3 q=41.0 size=       1KiB time=00:00:00.67 bitrate=   6.6kbits/s speed=0.0111x elapsed=0:01:00.80    \nframe=   83 fps=1.4 q=46.0 size=       1KiB time=00:00:00.68 bitrate=   6.6kbits/s speed=0.0111x elapsed=0:01:01.33    \nframe=   83 fps=1.3 q=46.0 size=       1KiB time=00:00:00.68 bitrate=   6.6kbits/s speed=0.0111x elapsed=0:01:01.83    \nframe=   84 fps=1.3 q=41.0 size=       1KiB time=00:00:00.69 bitrate=   6.5kbits/s speed=0.0111x elapsed=0:01:02.36    \nframe=   85 fps=1.4 q=48.0 size=       1KiB time=00:00:00.70 bitrate=   6.4kbits/s speed=0.0111x elapsed=0:01:02.88    \nframe=   86 fps=1.4 q=42.0 size=       1KiB time=00:00:00.70 bitrate=   6.3kbits/s speed=0.0112x elapsed=0:01:03.39    \nframe=   87 fps=1.4 q=45.0 size=       1KiB time=00:00:00.71 bitrate=   6.3kbits/s speed=0.0112x elapsed=0:01:03.92    \nframe=   88 fps=1.4 q=42.0 size=       1KiB time=00:00:00.72 bitrate=   6.2kbits/s speed=0.0113x elapsed=0:01:04.43    \nframe=   89 fps=1.4 q=37.0 size=       1KiB time=00:00:00.73 bitrate=   6.1kbits/s speed=0.0113x elapsed=0:01:04.95    \nframe=   90 fps=1.4 q=42.0 size=       1KiB time=00:00:00.74 bitrate=   6.0kbits/s speed=0.0113x elapsed=0:01:05.48    \nframe=   91 fps=1.4 q=46.0 size=       1KiB time=00:00:00.75 bitrate=   6.0kbits/s speed=0.0114x elapsed=0:01:06.00    \nframe=   91 fps=1.4 q=46.0 size=       1KiB time=00:00:00.75 bitrate=   6.0kbits/s speed=0.0113x elapsed=0:01:06.53    \nframe=   91 fps=1.4 q=46.0 size=       1KiB time=00:00:00.75 bitrate=   6.0kbits/s speed=0.0112x elapsed=0:01:07.06    \nframe=   92 fps=1.4 q=41.0 size=       1KiB time=00:00:00.75 bitrate=   5.9kbits/s speed=0.0112x elapsed=0:01:07.57    \nframe=   95 fps=1.4 q=45.0 size=       1KiB time=00:00:00.78 bitrate=   5.7kbits/s speed=0.0115x elapsed=0:01:08.12    \nframe=   96 fps=1.4 q=41.0 size=       1KiB time=00:00:00.79 bitrate=   5.7kbits/s speed=0.0115x elapsed=0:01:08.71    \nframe=   97 fps=1.4 q=24.0 size=       1KiB time=00:00:00.80 bitrate=   5.6kbits/s speed=0.0116x elapsed=0:01:09.23    \nframe=   99 fps=1.4 q=45.0 size=       1KiB time=00:00:00.81 bitrate=   5.5kbits/s speed=0.0117x elapsed=0:01:09.86    \nframe=  101 fps=1.4 q=46.0 size=       1KiB time=00:00:00.83 bitrate=   5.4kbits/s speed=0.0118x elapsed=0:01:10.38    \nframe=  102 fps=1.4 q=41.0 size=       1KiB time=00:00:00.84 bitrate=   5.3kbits/s speed=0.0119x elapsed=0:01:11.00    \nframe=  103 fps=1.4 q=45.0 size=       1KiB time=00:00:00.85 bitrate=   5.3kbits/s speed=0.0119x elapsed=0:01:11.53    \nframe=  105 fps=1.5 q=35.0 size=       1KiB time=00:00:00.86 bitrate=   5.2kbits/s speed=0.012x elapsed=0:01:12.05    \nframe=  107 fps=1.5 q=46.0 size=       1KiB time=00:00:00.88 bitrate=   5.1kbits/s speed=0.0122x elapsed=0:01:12.55    \nframe=  108 fps=1.5 q=41.0 size=       1KiB time=00:00:00.89 bitrate=   5.0kbits/s speed=0.0122x elapsed=0:01:13.08    \nframe=  110 fps=1.5 q=43.0 size=       1KiB time=00:00:00.90 bitrate=   4.9kbits/s speed=0.0123x elapsed=0:01:13.58    \nframe=  111 fps=1.5 q=46.0 size=       1KiB time=00:00:00.91 bitrate=   4.9kbits/s speed=0.0124x elapsed=0:01:14.11    \nframe=  112 fps=1.5 q=42.0 size=       1KiB time=00:00:00.92 bitrate=   4.8kbits/s speed=0.0124x elapsed=0:01:14.62    \nframe=  113 fps=1.5 q=25.0 size=       1KiB time=00:00:00.93 bitrate=   4.8kbits/s speed=0.0124x elapsed=0:01:15.14    \nframe=  114 fps=1.5 q=41.0 size=       1KiB time=00:00:00.94 bitrate=   4.8kbits/s speed=0.0124x elapsed=0:01:15.65    \nframe=  117 fps=1.5 q=46.0 size=       1KiB time=00:00:00.96 bitrate=   4.6kbits/s speed=0.0127x elapsed=0:01:16.17    \nframe=  118 fps=1.5 q=43.0 size=       1KiB time=00:00:00.97 bitrate=   4.6kbits/s speed=0.0127x elapsed=0:01:16.69    \nframe=  119 fps=1.5 q=46.0 size=       1KiB time=00:00:00.98 bitrate=   4.6kbits/s speed=0.0127x elapsed=0:01:17.21    \nframe=  120 fps=1.5 q=43.0 size=       1KiB time=00:00:00.99 bitrate=   4.5kbits/s speed=0.0128x elapsed=0:01:17.73    \nframe=  121 fps=1.5 q=35.0 size=       1KiB time=00:00:01.00 bitrate=   4.5kbits/s speed=0.0128x elapsed=0:01:18.24    \nframe=  124 fps=1.6 q=42.0 size=       1KiB time=00:00:01.02 bitrate=   4.4kbits/s speed=0.013x elapsed=0:01:18.76    \nframe=  125 fps=1.6 q=47.0 size=       1KiB time=00:00:01.03 bitrate=   4.3kbits/s speed=0.013x elapsed=0:01:19.28    \nframe=  128 fps=1.6 q=42.0 size=       1KiB time=00:00:01.05 bitrate=   4.2kbits/s speed=0.0133x elapsed=0:01:19.79    \nframe=  129 fps=1.6 q=25.0 size=       1KiB time=00:00:01.06 bitrate=   4.2kbits/s speed=0.0133x elapsed=0:01:20.31    \nframe=  131 fps=1.6 q=47.0 size=       1KiB time=00:00:01.08 bitrate=   4.1kbits/s speed=0.0134x elapsed=0:01:20.82    \nframe=  134 fps=1.6 q=42.0 size=       1KiB time=00:00:01.10 bitrate=   4.0kbits/s speed=0.0136x elapsed=0:01:21.35    \nframe=  135 fps=1.6 q=47.0 size=       1KiB time=00:00:01.11 bitrate=   4.0kbits/s speed=0.0136x elapsed=0:01:21.85    \nframe=  136 fps=1.7 q=42.0 size=       1KiB time=00:00:01.12 bitrate=   4.0kbits/s speed=0.0137x elapsed=0:01:22.37    \nframe=  138 fps=1.7 q=41.0 size=       1KiB time=00:00:01.14 bitrate=   3.9kbits/s speed=0.0138x elapsed=0:01:22.88    \nframe=  139 fps=1.7 q=46.0 size=       1KiB time=00:00:01.15 bitrate=   3.9kbits/s speed=0.0138x elapsed=0:01:23.40    \nframe=  141 fps=1.7 q=47.0 size=       1KiB time=00:00:01.16 bitrate=   3.8kbits/s speed=0.0139x elapsed=0:01:23.91    \nframe=  143 fps=1.7 q=46.0 size=       1KiB time=00:00:01.18 bitrate=   3.8kbits/s speed=0.014x elapsed=0:01:24.43    \nframe=  145 fps=1.7 q=24.0 size=       1KiB time=00:00:01.20 bitrate=   3.7kbits/s speed=0.0141x elapsed=0:01:24.94    \nframe=  146 fps=1.7 q=42.0 size=       1KiB time=00:00:01.20 bitrate=   3.7kbits/s speed=0.0141x elapsed=0:01:25.46    \nframe=  148 fps=1.7 q=41.0 size=       1KiB time=00:00:01.22 bitrate=   3.7kbits/s speed=0.0142x elapsed=0:01:25.99    \nframe=  149 fps=1.7 q=48.0 size=       1KiB time=00:00:01.23 bitrate=   3.6kbits/s speed=0.0143x elapsed=0:01:26.51    \nframe=  150 fps=1.7 q=40.0 size=       1KiB time=00:00:01.24 bitrate=   3.6kbits/s speed=0.0143x elapsed=0:01:27.03    \nframe=  151 fps=1.7 q=45.0 size=       1KiB time=00:00:01.25 bitrate=   3.6kbits/s speed=0.0143x elapsed=0:01:27.55    \nframe=  153 fps=1.7 q=34.0 size=       1KiB time=00:00:01.26 bitrate=   3.5kbits/s speed=0.0144x elapsed=0:01:28.06    \nframe=  154 fps=1.7 q=39.0 size=       1KiB time=00:00:01.27 bitrate=   3.5kbits/s speed=0.0144x elapsed=0:01:28.58    \nframe=  155 fps=1.7 q=44.0 size=       1KiB time=00:00:01.28 bitrate=   3.5kbits/s speed=0.0144x elapsed=0:01:29.08    \nframe=  157 fps=1.8 q=46.0 size=       1KiB time=00:00:01.30 bitrate=   3.4kbits/s speed=0.0145x elapsed=0:01:29.61    \nframe=  160 fps=1.8 q=39.0 size=       1KiB time=00:00:01.31 bitrate=   3.4kbits/s speed=0.0146x elapsed=0:01:30.11    \nframe=  161 fps=1.8 q=24.0 size=       1KiB time=00:00:01.33 bitrate=   3.4kbits/s speed=0.0147x elapsed=0:01:30.64    \nframe=  163 fps=1.8 q=43.0 size=       1KiB time=00:00:01.35 bitrate=   3.3kbits/s speed=0.0148x elapsed=0:01:31.16    \nframe=  164 fps=1.8 q=39.0 size=       1KiB time=00:00:01.35 bitrate=   3.3kbits/s speed=0.0148x elapsed=0:01:31.66    \nframe=  165 fps=1.8 q=45.0 size=       1KiB time=00:00:01.36 bitrate=   3.3kbits/s speed=0.0148x elapsed=0:01:32.19    \nframe=  166 fps=1.8 q=40.0 size=       1KiB time=00:00:01.37 bitrate=   3.3kbits/s speed=0.0148x elapsed=0:01:32.69    \nframe=  167 fps=1.8 q=44.0 size=       1KiB time=00:00:01.38 bitrate=   3.2kbits/s speed=0.0148x elapsed=0:01:33.21    \nframe=  168 fps=1.8 q=41.0 size=       1KiB time=00:00:01.39 bitrate=   3.2kbits/s speed=0.0148x elapsed=0:01:33.73    \nframe=  170 fps=1.8 q=41.0 size=       1KiB time=00:00:01.40 bitrate=   3.2kbits/s speed=0.0149x elapsed=0:01:34.25    \nframe=  170 fps=1.8 q=41.0 size=       1KiB time=00:00:01.40 bitrate=   3.2kbits/s speed=0.0149x elapsed=0:01:34.76    \nframe=  171 fps=1.8 q=45.0 size=       1KiB time=00:00:01.41 bitrate=   3.2kbits/s speed=0.0149x elapsed=0:01:35.28    \nframe=  172 fps=1.8 q=40.0 size=       1KiB time=00:00:01.42 bitrate=   3.1kbits/s speed=0.0149x elapsed=0:01:35.79    \nframe=  174 fps=1.8 q=40.0 size=       1KiB time=00:00:01.44 bitrate=   3.1kbits/s speed=0.015x elapsed=0:01:36.31    \nframe=  176 fps=1.8 q=40.0 size=       1KiB time=00:00:01.45 bitrate=   3.1kbits/s speed=0.0151x elapsed=0:01:36.83    \nframe=  178 fps=1.8 q=41.0 size=       1KiB time=00:00:01.47 bitrate=   3.0kbits/s speed=0.0152x elapsed=0:01:37.34    \nframe=  179 fps=1.8 q=45.0 size=       1KiB time=00:00:01.48 bitrate=   3.0kbits/s speed=0.0152x elapsed=0:01:37.86    \nframe=  181 fps=1.8 q=47.0 size=       1KiB time=00:00:01.50 bitrate=   3.0kbits/s speed=0.0152x elapsed=0:01:38.37    \nframe=  181 fps=1.8 q=47.0 size=       1KiB time=00:00:01.50 bitrate=   3.0kbits/s speed=0.0152x elapsed=0:01:38.89    \nframe=  182 fps=1.8 q=41.0 size=       1KiB time=00:00:01.50 bitrate=   3.0kbits/s speed=0.0152x elapsed=0:01:39.40    \nframe=  183 fps=1.8 q=45.0 size=       1KiB time=00:00:01.51 bitrate=   3.0kbits/s speed=0.0152x elapsed=0:01:39.92    \nframe=  184 fps=1.8 q=41.0 size=       1KiB time=00:00:01.52 bitrate=   2.9kbits/s speed=0.0152x elapsed=0:01:40.43    \nframe=  186 fps=1.8 q=41.0 size=       1KiB time=00:00:01.54 bitrate=   2.9kbits/s speed=0.0153x elapsed=0:01:40.95    \nframe=  187 fps=1.8 q=45.0 size=       1KiB time=00:00:01.55 bitrate=   2.9kbits/s speed=0.0153x elapsed=0:01:41.47    \nframe=  188 fps=1.8 q=40.0 size=       1KiB time=00:00:01.55 bitrate=   2.9kbits/s speed=0.0153x elapsed=0:01:41.98    \nframe=  189 fps=1.8 q=46.0 size=       1KiB time=00:00:01.56 bitrate=   2.9kbits/s speed=0.0153x elapsed=0:01:42.50    \nframe=  191 fps=1.9 q=44.0 size=       1KiB time=00:00:01.58 bitrate=   2.8kbits/s speed=0.0154x elapsed=0:01:43.02    \nframe=  192 fps=1.9 q=40.0 size=       1KiB time=00:00:01.59 bitrate=   2.8kbits/s speed=0.0154x elapsed=0:01:43.54    \nframe=  194 fps=1.9 q=39.0 size=       1KiB time=00:00:01.60 bitrate=   2.8kbits/s speed=0.0155x elapsed=0:01:44.06    \nframe=  195 fps=1.9 q=43.0 size=       1KiB time=00:00:01.61 bitrate=   2.8kbits/s speed=0.0155x elapsed=0:01:44.57    \nframe=  195 fps=1.9 q=43.0 size=       1KiB time=00:00:01.61 bitrate=   2.8kbits/s speed=0.0154x elapsed=0:01:45.09    \nframe=  197 fps=1.9 q=45.0 size=       1KiB time=00:00:01.63 bitrate=   2.7kbits/s speed=0.0155x elapsed=0:01:45.60    \nframe=  198 fps=1.9 q=39.0 size=       1KiB time=00:00:01.64 bitrate=   2.7kbits/s speed=0.0155x elapsed=0:01:46.12    \nframe=  199 fps=1.9 q=43.0 size=       1KiB time=00:00:01.65 bitrate=   2.7kbits/s speed=0.0155x elapsed=0:01:46.64    \nframe=  200 fps=1.9 q=40.0 size=       1KiB time=00:00:01.65 bitrate=   2.7kbits/s speed=0.0155x elapsed=0:01:47.15    \nframe=  201 fps=1.9 q=32.0 size=       1KiB time=00:00:01.66 bitrate=   2.7kbits/s speed=0.0155x elapsed=0:01:47.67    \nframe=  203 fps=1.9 q=44.0 size=       1KiB time=00:00:01.68 bitrate=   2.7kbits/s speed=0.0156x elapsed=0:01:48.19    \nframe=  204 fps=1.9 q=40.0 size=       1KiB time=00:00:01.69 bitrate=   2.6kbits/s speed=0.0156x elapsed=0:01:48.71    \nframe=  208 fps=1.9 q=42.0 size=       1KiB time=00:00:01.72 bitrate=   2.6kbits/s speed=0.0158x elapsed=0:01:49.23    \nframe=  209 fps=1.9 q=25.0 size=       1KiB time=00:00:01.73 bitrate=   2.6kbits/s speed=0.0158x elapsed=0:01:49.74    \nframe=  210 fps=1.9 q=42.0 size=       1KiB time=00:00:01.74 bitrate=   2.6kbits/s speed=0.0158x elapsed=0:01:50.26    \nframe=  213 fps=1.9 q=47.0 size=       1KiB time=00:00:01.76 bitrate=   2.5kbits/s speed=0.0159x elapsed=0:01:50.78    \nframe=  214 fps=1.9 q=43.0 size=       1KiB time=00:00:01.77 bitrate=   2.5kbits/s speed=0.0159x elapsed=0:01:51.29    \nframe=  215 fps=1.9 q=46.0 size=       1KiB time=00:00:01.78 bitrate=   2.5kbits/s speed=0.0159x elapsed=0:01:51.81    \nframe=  217 fps=1.9 q=31.0 size=       1KiB time=00:00:01.80 bitrate=   2.5kbits/s speed=0.016x elapsed=0:01:52.32    \nframe=  217 fps=1.9 q=31.0 size=       1KiB time=00:00:01.80 bitrate=   2.5kbits/s speed=0.016x elapsed=0:01:52.83    \nframe=  219 fps=1.9 q=47.0 size=       1KiB time=00:00:01.81 bitrate=   2.5kbits/s speed=0.016x elapsed=0:01:53.36    \nframe=  220 fps=1.9 q=43.0 size=       1KiB time=00:00:01.82 bitrate=   2.5kbits/s speed=0.016x elapsed=0:01:53.87    \nframe=  223 fps=1.9 q=47.0 size=       1KiB time=00:00:01.85 bitrate=   2.4kbits/s speed=0.0162x elapsed=0:01:54.39    \nframe=  224 fps=1.9 q=42.0 size=       1KiB time=00:00:01.85 bitrate=   2.4kbits/s speed=0.0162x elapsed=0:01:54.90    \nframe=  226 fps=2.0 q=43.0 size=       1KiB time=00:00:01.87 bitrate=   2.4kbits/s speed=0.0162x elapsed=0:01:55.42    \nframe=  227 fps=2.0 q=47.0 size=       1KiB time=00:00:01.88 bitrate=   2.4kbits/s speed=0.0162x elapsed=0:01:55.93    \nframe=  228 fps=2.0 q=43.0 size=       1KiB time=00:00:01.89 bitrate=   2.4kbits/s speed=0.0162x elapsed=0:01:56.45    \nframe=  230 fps=2.0 q=43.0 size=       1KiB time=00:00:01.90 bitrate=   2.3kbits/s speed=0.0163x elapsed=0:01:56.96    \nframe=  232 fps=2.0 q=43.0 size=       1KiB time=00:00:01.92 bitrate=   2.3kbits/s speed=0.0164x elapsed=0:01:57.48    \nframe=  234 fps=2.0 q=44.0 size=       1KiB time=00:00:01.94 bitrate=   2.3kbits/s speed=0.0165x elapsed=0:01:58.00    \nframe=  236 fps=2.0 q=44.0 size=       1KiB time=00:00:01.95 bitrate=   2.3kbits/s speed=0.0165x elapsed=0:01:58.51    \nframe=  236 fps=2.0 q=44.0 size=       1KiB time=00:00:01.95 bitrate=   2.3kbits/s speed=0.0165x elapsed=0:01:59.03    \nframe=  239 fps=2.0 q=47.0 size=       1KiB time=00:00:01.98 bitrate=   2.3kbits/s speed=0.0166x elapsed=0:01:59.54    \nframe=  241 fps=2.0 q=24.0 size=       1KiB time=00:00:02.00 bitrate=   2.2kbits/s speed=0.0167x elapsed=0:02:00.06    \nframe=  243 fps=2.0 q=48.0 size=       1KiB time=00:00:02.01 bitrate=   2.2kbits/s speed=0.0167x elapsed=0:02:00.57    \nframe=  244 fps=2.0 q=39.0 size=       1KiB time=00:00:02.02 bitrate=   2.2kbits/s speed=0.0167x elapsed=0:02:01.09    \nframe=  246 fps=2.0 q=44.0 size=       1KiB time=00:00:02.04 bitrate=   2.2kbits/s speed=0.0168x elapsed=0:02:01.61    \nframe=  247 fps=2.0 q=47.0 size=       1KiB time=00:00:02.05 bitrate=   2.2kbits/s speed=0.0168x elapsed=0:02:02.11    \nframe=  249 fps=2.0 q=33.0 size=       1KiB time=00:00:02.06 bitrate=   2.2kbits/s speed=0.0169x elapsed=0:02:02.63    \nframe=  251 fps=2.0 q=45.0 size=       1KiB time=00:00:02.08 bitrate=   2.2kbits/s speed=0.0169x elapsed=0:02:03.15    \nframe=  252 fps=2.0 q=43.0 size=       1KiB time=00:00:02.09 bitrate=   2.1kbits/s speed=0.0169x elapsed=0:02:03.66    \nframe=  255 fps=2.1 q=44.0 size=       1KiB time=00:00:02.11 bitrate=   2.1kbits/s speed=0.017x elapsed=0:02:04.18    \nframe=  257 fps=2.1 q=26.0 size=       1KiB time=00:00:02.13 bitrate=   2.1kbits/s speed=0.0171x elapsed=0:02:04.70    \nframe=  257 fps=2.1 q=26.0 size=       1KiB time=00:00:02.13 bitrate=   2.1kbits/s speed=0.017x elapsed=0:02:05.21    \nframe=  259 fps=2.1 q=43.0 size=       1KiB time=00:00:02.15 bitrate=   2.1kbits/s speed=0.0171x elapsed=0:02:05.72    \nframe=  261 fps=2.1 q=45.0 size=       1KiB time=00:00:02.16 bitrate=   2.1kbits/s speed=0.0172x elapsed=0:02:06.25    \nframe=  262 fps=2.1 q=42.0 size=       1KiB time=00:00:02.17 bitrate=   2.1kbits/s speed=0.0172x elapsed=0:02:06.76    \nframe=  263 fps=2.1 q=43.0 size=       1KiB time=00:00:02.18 bitrate=   2.1kbits/s speed=0.0172x elapsed=0:02:07.28    \nframe=  265 fps=2.1 q=36.0 size=       1KiB time=00:00:02.20 bitrate=   2.0kbits/s speed=0.0172x elapsed=0:02:07.79    \nframe=  267 fps=2.1 q=42.0 size=       1KiB time=00:00:02.21 bitrate=   2.0kbits/s speed=0.0173x elapsed=0:02:08.31    \nframe=  268 fps=2.1 q=41.0 size=       1KiB time=00:00:02.22 bitrate=   2.0kbits/s speed=0.0173x elapsed=0:02:08.81    \nframe=  270 fps=2.1 q=42.0 size=       1KiB time=00:00:02.24 bitrate=   2.0kbits/s speed=0.0173x elapsed=0:02:09.34    \nframe=  271 fps=2.1 q=44.0 size=       1KiB time=00:00:02.25 bitrate=   2.0kbits/s speed=0.0173x elapsed=0:02:09.86    \nframe=  272 fps=2.1 q=43.0 size=       1KiB time=00:00:02.25 bitrate=   2.0kbits/s speed=0.0173x elapsed=0:02:10.37    \nframe=  273 fps=2.1 q=31.0 size=       1KiB time=00:00:02.26 bitrate=   2.0kbits/s speed=0.0173x elapsed=0:02:10.89    \nframe=  276 fps=2.1 q=44.0 size=       1KiB time=00:00:02.29 bitrate=   2.0kbits/s speed=0.0174x elapsed=0:02:11.39    \nframe=  277 fps=2.1 q=45.0 size=       1KiB time=00:00:02.30 bitrate=   1.9kbits/s speed=0.0174x elapsed=0:02:11.92    \nframe=  279 fps=2.1 q=47.0 size=       1KiB time=00:00:02.31 bitrate=   1.9kbits/s speed=0.0175x elapsed=0:02:12.43    \nframe=  279 fps=2.1 q=47.0 size=       1KiB time=00:00:02.31 bitrate=   1.9kbits/s speed=0.0174x elapsed=0:02:12.95    \nframe=  281 fps=2.1 q=35.0 size=       1KiB time=00:00:02.33 bitrate=   1.9kbits/s speed=0.0175x elapsed=0:02:13.46    \nframe=  282 fps=2.1 q=45.0 size=       1KiB time=00:00:02.34 bitrate=   1.9kbits/s speed=0.0175x elapsed=0:02:13.99    \nframe=  283 fps=2.1 q=48.0 size=       1KiB time=00:00:02.35 bitrate=   1.9kbits/s speed=0.0175x elapsed=0:02:14.49    \nframe=  284 fps=2.1 q=43.0 size=       1KiB time=00:00:02.35 bitrate=   1.9kbits/s speed=0.0175x elapsed=0:02:15.01    \nframe=  285 fps=2.1 q=48.0 size=       1KiB time=00:00:02.36 bitrate=   1.9kbits/s speed=0.0175x elapsed=0:02:15.52    \nframe=  289 fps=2.1 q=30.0 size=       1KiB time=00:00:02.40 bitrate=   1.9kbits/s speed=0.0176x elapsed=0:02:16.04    \nframe=  290 fps=2.1 q=46.0 size=       1KiB time=00:00:02.40 bitrate=   1.9kbits/s speed=0.0176x elapsed=0:02:16.56    \nframe=  291 fps=2.1 q=50.0 size=       1KiB time=00:00:02.41 bitrate=   1.9kbits/s speed=0.0176x elapsed=0:02:17.08    \nframe=  294 fps=2.1 q=46.0 size=       1KiB time=00:00:02.44 bitrate=   1.8kbits/s speed=0.0177x elapsed=0:02:17.58    \nframe=  295 fps=2.1 q=49.0 size=       1KiB time=00:00:02.45 bitrate=   1.8kbits/s speed=0.0177x elapsed=0:02:18.11    \nframe=  298 fps=2.1 q=45.0 size=       1KiB time=00:00:02.47 bitrate=   1.8kbits/s speed=0.0179x elapsed=0:02:18.61    \nframe=  299 fps=2.1 q=47.0 size=       1KiB time=00:00:02.48 bitrate=   1.8kbits/s speed=0.0178x elapsed=0:02:19.13    \nframe=  301 fps=2.2 q=48.0 size=       1KiB time=00:00:02.50 bitrate=   1.8kbits/s speed=0.0179x elapsed=0:02:19.66    \nframe=  303 fps=2.2 q=45.0 size=       1KiB time=00:00:02.51 bitrate=   1.8kbits/s speed=0.018x elapsed=0:02:20.16    \nframe=  307 fps=2.2 q=45.0 size=       1KiB time=00:00:02.55 bitrate=   1.8kbits/s speed=0.0181x elapsed=0:02:20.69    \nframe=  309 fps=2.2 q=48.0 size=       1KiB time=00:00:02.56 bitrate=   1.7kbits/s speed=0.0182x elapsed=0:02:21.19    \nframe=  310 fps=2.2 q=44.0 size=       1KiB time=00:00:02.57 bitrate=   1.7kbits/s speed=0.0182x elapsed=0:02:21.71    \nframe=  312 fps=2.2 q=44.0 size=       1KiB time=00:00:02.59 bitrate=   1.7kbits/s speed=0.0182x elapsed=0:02:22.24    \nframe=  315 fps=2.2 q=45.0 size=       1KiB time=00:00:02.61 bitrate=   1.7kbits/s speed=0.0183x elapsed=0:02:22.74    \nframe=  316 fps=2.2 q=44.0 size=       1KiB time=00:00:02.62 bitrate=   1.7kbits/s speed=0.0183x elapsed=0:02:23.26    \nframe=  317 fps=2.2 q=47.0 size=       1KiB time=00:00:02.63 bitrate=   1.7kbits/s speed=0.0183x elapsed=0:02:23.77    \nframe=  320 fps=2.2 q=44.0 size=       1KiB time=00:00:02.65 bitrate=   1.7kbits/s speed=0.0184x elapsed=0:02:24.29    \nframe=  322 fps=2.2 q=44.0 size=       1KiB time=00:00:02.67 bitrate=   1.7kbits/s speed=0.0185x elapsed=0:02:24.80    \nframe=  324 fps=2.2 q=44.0 size=       1KiB time=00:00:02.69 bitrate=   1.7kbits/s speed=0.0185x elapsed=0:02:25.32    \nframe=  325 fps=2.2 q=47.0 size=       1KiB time=00:00:02.70 bitrate=   1.7kbits/s speed=0.0185x elapsed=0:02:25.84    \nframe=  327 fps=2.2 q=46.0 size=       1KiB time=00:00:02.71 bitrate=   1.6kbits/s speed=0.0186x elapsed=0:02:26.35    \nframe=  328 fps=2.2 q=41.0 size=       1KiB time=00:00:02.72 bitrate=   1.6kbits/s speed=0.0186x elapsed=0:02:26.87    \nframe=  330 fps=2.2 q=44.0 size=       1KiB time=00:00:02.74 bitrate=   1.6kbits/s speed=0.0186x elapsed=0:02:27.39    \nframe=  331 fps=2.2 q=46.0 size=       1KiB time=00:00:02.75 bitrate=   1.6kbits/s speed=0.0186x elapsed=0:02:27.89    \nframe=  332 fps=2.2 q=41.0 size=       1KiB time=00:00:02.75 bitrate=   1.6kbits/s speed=0.0186x elapsed=0:02:28.42    \nframe=  335 fps=2.2 q=47.0 size=       1KiB time=00:00:02.78 bitrate=   1.6kbits/s speed=0.0187x elapsed=0:02:28.94    \nframe=  335 fps=2.2 q=47.0 size=       1KiB time=00:00:02.78 bitrate=   1.6kbits/s speed=0.0186x elapsed=0:02:29.44    \nframe=  338 fps=2.3 q=44.0 size=       1KiB time=00:00:02.80 bitrate=   1.6kbits/s speed=0.0187x elapsed=0:02:29.97    \nframe=  339 fps=2.3 q=46.0 size=       1KiB time=00:00:02.81 bitrate=   1.6kbits/s speed=0.0187x elapsed=0:02:30.49    \nframe=  340 fps=2.3 q=39.0 size=       1KiB time=00:00:02.82 bitrate=   1.6kbits/s speed=0.0187x elapsed=0:02:30.99    \nframe=  342 fps=2.3 q=44.0 size=       1KiB time=00:00:02.84 bitrate=   1.6kbits/s speed=0.0188x elapsed=0:02:31.51    \nframe=  343 fps=2.3 q=45.0 size=       1KiB time=00:00:02.85 bitrate=   1.6kbits/s speed=0.0187x elapsed=0:02:32.02    \nframe=  344 fps=2.3 q=44.0 size=       1KiB time=00:00:02.85 bitrate=   1.6kbits/s speed=0.0187x elapsed=0:02:32.54    \nframe=  346 fps=2.3 q=44.0 size=       1KiB time=00:00:02.87 bitrate=   1.6kbits/s speed=0.0188x elapsed=0:02:33.06    \nframe=  348 fps=2.3 q=44.0 size=       1KiB time=00:00:02.89 bitrate=   1.5kbits/s speed=0.0188x elapsed=0:02:33.58    \nframe=  351 fps=2.3 q=45.0 size=       1KiB time=00:00:02.91 bitrate=   1.5kbits/s speed=0.0189x elapsed=0:02:34.10    \nframe=  354 fps=2.3 q=44.0 size=       1KiB time=00:00:02.94 bitrate=   1.5kbits/s speed=0.019x elapsed=0:02:34.62    \nframe=  356 fps=2.3 q=44.0 size=       1KiB time=00:00:02.95 bitrate=   1.5kbits/s speed=0.0191x elapsed=0:02:35.14    \nframe=  359 fps=2.3 q=47.0 size=       1KiB time=00:00:02.98 bitrate=   1.5kbits/s speed=0.0192x elapsed=0:02:35.65    \nframe=  362 fps=2.3 q=45.0 size=       1KiB time=00:00:03.00 bitrate=   1.5kbits/s speed=0.0193x elapsed=0:02:36.16    \nframe=  363 fps=2.3 q=47.0 size=       1KiB time=00:00:03.01 bitrate=   1.5kbits/s speed=0.0193x elapsed=0:02:36.68    \nframe=  366 fps=2.3 q=45.0 size=       1KiB time=00:00:03.04 bitrate=   1.5kbits/s speed=0.0193x elapsed=0:02:37.20    \nframe=  366 fps=2.3 q=45.0 size=       1KiB time=00:00:03.04 bitrate=   1.5kbits/s speed=0.0193x elapsed=0:02:37.71    \nframe=  369 fps=2.3 q=28.0 size=       1KiB time=00:00:03.06 bitrate=   1.5kbits/s speed=0.0194x elapsed=0:02:38.23    \nframe=  370 fps=2.3 q=44.0 size=       1KiB time=00:00:03.07 bitrate=   1.5kbits/s speed=0.0194x elapsed=0:02:38.75    \nframe=  372 fps=2.3 q=44.0 size=       1KiB time=00:00:03.09 bitrate=   1.4kbits/s speed=0.0194x elapsed=0:02:39.26    \nframe=  373 fps=2.3 q=47.0 size=       1KiB time=00:00:03.10 bitrate=   1.4kbits/s speed=0.0194x elapsed=0:02:39.78    \nframe=  374 fps=2.3 q=44.0 size=       1KiB time=00:00:03.10 bitrate=   1.4kbits/s speed=0.0194x elapsed=0:02:40.29    \nframe=  376 fps=2.3 q=44.0 size=       1KiB time=00:00:03.12 bitrate=   1.4kbits/s speed=0.0194x elapsed=0:02:40.81    \nframe=  377 fps=2.3 q=36.0 size=       1KiB time=00:00:03.13 bitrate=   1.4kbits/s speed=0.0194x elapsed=0:02:41.33    \nframe=  378 fps=2.3 q=44.0 size=       1KiB time=00:00:03.14 bitrate=   1.4kbits/s speed=0.0194x elapsed=0:02:41.84    \nframe=  380 fps=2.3 q=36.0 size=       1KiB time=00:00:03.15 bitrate=   1.4kbits/s speed=0.0195x elapsed=0:02:42.35    \nframe=  382 fps=2.3 q=44.0 size=       1KiB time=00:00:03.17 bitrate=   1.4kbits/s speed=0.0195x elapsed=0:02:42.87    \nframe=  383 fps=2.3 q=45.0 size=       1KiB time=00:00:03.18 bitrate=   1.4kbits/s speed=0.0195x elapsed=0:02:43.38    \nframe=  385 fps=2.3 q=29.0 size=       1KiB time=00:00:03.20 bitrate=   1.4kbits/s speed=0.0195x elapsed=0:02:43.90    \nframe=  386 fps=2.3 q=45.0 size=       1KiB time=00:00:03.20 bitrate=   1.4kbits/s speed=0.0195x elapsed=0:02:44.41    \nframe=  390 fps=2.4 q=45.0 size=       1KiB time=00:00:03.24 bitrate=   1.4kbits/s speed=0.0197x elapsed=0:02:44.94    \nframe=  391 fps=2.4 q=47.0 size=       1KiB time=00:00:03.25 bitrate=   1.4kbits/s speed=0.0196x elapsed=0:02:45.45    \nframe=  394 fps=2.4 q=45.0 size=       1KiB time=00:00:03.27 bitrate=   1.4kbits/s speed=0.0197x elapsed=0:02:45.97    \nframe=  397 fps=2.4 q=48.0 size=       1KiB time=00:00:03.30 bitrate=   1.4kbits/s speed=0.0198x elapsed=0:02:46.48    \nframe=  399 fps=2.4 q=49.0 size=       1KiB time=00:00:03.31 bitrate=   1.4kbits/s speed=0.0199x elapsed=0:02:46.99    \nframe=  402 fps=2.4 q=46.0 size=       1KiB time=00:00:03.34 bitrate=   1.3kbits/s speed=0.0199x elapsed=0:02:47.51    \nframe=  405 fps=2.4 q=49.0 size=       1KiB time=00:00:03.36 bitrate=   1.3kbits/s speed=0.02x elapsed=0:02:48.02    \nframe=  407 fps=2.4 q=48.0 size=       1KiB time=00:00:03.38 bitrate=   1.3kbits/s speed=0.0201x elapsed=0:02:48.54    \nframe=  409 fps=2.4 q=35.0 size=       1KiB time=00:00:03.40 bitrate=   1.3kbits/s speed=0.0201x elapsed=0:02:49.05    \nframe=  410 fps=2.4 q=45.0 size=       1KiB time=00:00:03.40 bitrate=   1.3kbits/s speed=0.0201x elapsed=0:02:49.57    \nframe=  412 fps=2.4 q=45.0 size=       1KiB time=00:00:03.42 bitrate=   1.3kbits/s speed=0.0201x elapsed=0:02:50.09    \nframe=  415 fps=2.4 q=47.0 size=       1KiB time=00:00:03.45 bitrate=   1.3kbits/s speed=0.0202x elapsed=0:02:50.60    \nframe=  416 fps=2.4 q=41.0 size=       1KiB time=00:00:03.45 bitrate=   1.3kbits/s speed=0.0202x elapsed=0:02:51.12    \nframe=  418 fps=2.4 q=44.0 size=       1KiB time=00:00:03.47 bitrate=   1.3kbits/s speed=0.0202x elapsed=0:02:51.65    \nframe=  421 fps=2.4 q=47.0 size=       1KiB time=00:00:03.50 bitrate=   1.3kbits/s speed=0.0203x elapsed=0:02:52.21    \nframe=  423 fps=2.4 q=46.0 size=       1KiB time=00:00:03.51 bitrate=   1.3kbits/s speed=0.0204x elapsed=0:02:52.74    \nframe=  424 fps=2.4 q=44.0 size=       1KiB time=00:00:03.52 bitrate=   1.3kbits/s speed=0.0203x elapsed=0:02:53.25    \nframe=  426 fps=2.5 q=44.0 size=       1KiB time=00:00:03.54 bitrate=   1.3kbits/s speed=0.0204x elapsed=0:02:53.79    \nframe=  428 fps=2.5 q=44.0 size=       1KiB time=00:00:03.55 bitrate=   1.3kbits/s speed=0.0204x elapsed=0:02:54.32    \nframe=  430 fps=2.5 q=44.0 size=       1KiB time=00:00:03.57 bitrate=   1.3kbits/s speed=0.0204x elapsed=0:02:54.83    \nframe=  432 fps=2.5 q=45.0 size=       1KiB time=00:00:03.59 bitrate=   1.2kbits/s speed=0.0205x elapsed=0:02:55.36    \nframe=  433 fps=2.5 q=29.0 size=       1KiB time=00:00:03.60 bitrate=   1.2kbits/s speed=0.0205x elapsed=0:02:55.90    \nframe=  434 fps=2.5 q=44.0 size=       1KiB time=00:00:03.60 bitrate=   1.2kbits/s speed=0.0204x elapsed=0:02:56.46    \nframe=  436 fps=2.5 q=44.0 size=       1KiB time=00:00:03.61 bitrate=   1.2kbits/s speed=0.0204x elapsed=0:02:57.00    \nframe=  436 fps=2.5 q=44.0 size=       1KiB time=00:00:03.62 bitrate=   1.2kbits/s speed=0.0204x elapsed=0:02:57.57    \nframe=  439 fps=2.5 q=47.0 size=       1KiB time=00:00:03.64 bitrate=   1.2kbits/s speed=0.0204x elapsed=0:02:58.09    \nframe=  441 fps=2.5 q=36.0 size=       1KiB time=00:00:03.66 bitrate=   1.2kbits/s speed=0.0205x elapsed=0:02:58.69    \nframe=  443 fps=2.5 q=47.0 size=       1KiB time=00:00:03.68 bitrate=   1.2kbits/s speed=0.0205x elapsed=0:02:59.28    \nframe=  444 fps=2.5 q=41.0 size=       1KiB time=00:00:03.69 bitrate=   1.2kbits/s speed=0.0205x elapsed=0:02:59.83    \nframe=  448 fps=2.5 q=46.0 size=       1KiB time=00:00:03.71 bitrate=   1.2kbits/s speed=0.0206x elapsed=0:03:00.35    \nframe=  449 fps=2.5 q=29.0 size=       1KiB time=00:00:03.73 bitrate=   1.2kbits/s speed=0.0206x elapsed=0:03:00.87    \nframe=  451 fps=2.5 q=49.0 size=       1KiB time=00:00:03.75 bitrate=   1.2kbits/s speed=0.0207x elapsed=0:03:01.38    \nframe=  453 fps=2.5 q=49.0 size=       1KiB time=00:00:03.76 bitrate=   1.2kbits/s speed=0.0207x elapsed=0:03:01.90    \nframe=  455 fps=2.5 q=49.0 size=       1KiB time=00:00:03.78 bitrate=   1.2kbits/s speed=0.0207x elapsed=0:03:02.42    \nframe=  457 fps=2.5 q=35.0 size=       1KiB time=00:00:03.79 bitrate=   1.2kbits/s speed=0.0207x elapsed=0:03:02.96    \nframe=  458 fps=2.5 q=45.0 size=       1KiB time=00:00:03.80 bitrate=   1.2kbits/s speed=0.0207x elapsed=0:03:03.55    \nframe=  460 fps=2.5 q=45.0 size=       1KiB time=00:00:03.82 bitrate=   1.2kbits/s speed=0.0208x elapsed=0:03:04.07    \nframe=  463 fps=2.5 q=47.0 size=       1KiB time=00:00:03.85 bitrate=   1.2kbits/s speed=0.0209x elapsed=0:03:04.59    \nframe=  464 fps=2.5 q=46.0 size=       1KiB time=00:00:03.85 bitrate=   1.2kbits/s speed=0.0208x elapsed=0:03:05.14    \nframe=  466 fps=2.5 q=44.0 size=       1KiB time=00:00:03.87 bitrate=   1.2kbits/s speed=0.0209x elapsed=0:03:05.72    \nframe=  466 fps=2.5 q=44.0 size=       1KiB time=00:00:03.87 bitrate=   1.2kbits/s speed=0.0208x elapsed=0:03:06.25    \nframe=  469 fps=2.5 q=49.0 size=       1KiB time=00:00:03.90 bitrate=   1.1kbits/s speed=0.0209x elapsed=0:03:06.78    \nframe=  470 fps=2.5 q=44.0 size=       1KiB time=00:00:03.90 bitrate=   1.1kbits/s speed=0.0209x elapsed=0:03:07.30    \nframe=  472 fps=2.5 q=44.0 size=       1KiB time=00:00:03.92 bitrate=   1.1kbits/s speed=0.0209x elapsed=0:03:07.93    \nframe=  474 fps=2.5 q=44.0 size=       1KiB time=00:00:03.93 bitrate=   1.1kbits/s speed=0.0209x elapsed=0:03:08.52    \nframe=  476 fps=2.5 q=44.0 size=       1KiB time=00:00:03.95 bitrate=   1.1kbits/s speed=0.0209x elapsed=0:03:09.15    \nframe=  477 fps=2.5 q=48.0 size=       1KiB time=00:00:03.96 bitrate=   1.1kbits/s speed=0.0209x elapsed=0:03:09.69    \nframe=  482 fps=2.5 q=44.0 size=       1KiB time=00:00:04.00 bitrate=   1.1kbits/s speed=0.0211x elapsed=0:03:10.26    \nframe=  483 fps=2.5 q=45.0 size=       1KiB time=00:00:04.01 bitrate=   1.1kbits/s speed=0.021x elapsed=0:03:10.83    \nframe=  485 fps=2.5 q=48.0 size=       1KiB time=00:00:04.03 bitrate=   1.1kbits/s speed=0.0211x elapsed=0:03:11.38    \nframe=  486 fps=2.5 q=44.0 size=       1KiB time=00:00:04.04 bitrate=   1.1kbits/s speed=0.0211x elapsed=0:03:11.93    \nframe=  488 fps=2.5 q=44.0 size=       1KiB time=00:00:04.05 bitrate=   1.1kbits/s speed=0.0211x elapsed=0:03:12.44    \nframe=  490 fps=2.5 q=44.0 size=       1KiB time=00:00:04.07 bitrate=   1.1kbits/s speed=0.0211x elapsed=0:03:12.97    \nframe=  493 fps=2.5 q=48.0 size=       1KiB time=00:00:04.10 bitrate=   1.1kbits/s speed=0.0212x elapsed=0:03:13.50    \nframe=  495 fps=2.6 q=46.0 size=       1KiB time=00:00:04.11 bitrate=   1.1kbits/s speed=0.0212x elapsed=0:03:14.03    \nframe=  496 fps=2.5 q=40.0 size=       1KiB time=00:00:04.12 bitrate=   1.1kbits/s speed=0.0212x elapsed=0:03:14.58    \nframe=  497 fps=2.5 q=28.0 size=       1KiB time=00:00:04.13 bitrate=   1.1kbits/s speed=0.0212x elapsed=0:03:15.10    \nframe=  498 fps=2.5 q=45.0 size=       1KiB time=00:00:04.14 bitrate=   1.1kbits/s speed=0.0212x elapsed=0:03:15.63    \nframe=  502 fps=2.6 q=45.0 size=       1KiB time=00:00:04.17 bitrate=   1.1kbits/s speed=0.0213x elapsed=0:03:16.14    \nframe=  505 fps=2.6 q=35.0 size=       1KiB time=00:00:04.20 bitrate=   1.1kbits/s speed=0.0214x elapsed=0:03:16.69    \nframe=  507 fps=2.6 q=47.0 size=       1KiB time=00:00:04.21 bitrate=   1.1kbits/s speed=0.0214x elapsed=0:03:17.24    \nframe=  509 fps=2.6 q=48.0 size=       1KiB time=00:00:04.23 bitrate=   1.1kbits/s speed=0.0214x elapsed=0:03:17.80    \nframe=  513 fps=2.6 q=28.0 size=       1KiB time=00:00:04.26 bitrate=   1.0kbits/s speed=0.0215x elapsed=0:03:18.34    \nframe=  513 fps=2.6 q=28.0 size=       1KiB time=00:00:04.26 bitrate=   1.0kbits/s speed=0.0215x elapsed=0:03:18.87    \nframe=  513 fps=2.6 q=28.0 size=       1KiB time=00:00:04.26 bitrate=   1.0kbits/s speed=0.0214x elapsed=0:03:19.39    \nframe=  517 fps=2.6 q=48.0 size=       1KiB time=00:00:04.28 bitrate=   1.0kbits/s speed=0.0214x elapsed=0:03:19.91    \nframe=  517 fps=2.6 q=48.0 size=       1KiB time=00:00:04.30 bitrate=   1.0kbits/s speed=0.0214x elapsed=0:03:20.57    \nframe=  517 fps=2.6 q=48.0 size=       1KiB time=00:00:04.30 bitrate=   1.0kbits/s speed=0.0214x elapsed=0:03:21.09    \nframe=  521 fps=2.6 q=35.0 size=       1KiB time=00:00:04.33 bitrate=   1.0kbits/s speed=0.0215x elapsed=0:03:21.61    \nframe=  521 fps=2.6 q=35.0 size=       1KiB time=00:00:04.33 bitrate=   1.0kbits/s speed=0.0214x elapsed=0:03:22.13    \nframe=  523 fps=2.6 q=46.0 size=       1KiB time=00:00:04.35 bitrate=   1.0kbits/s speed=0.0215x elapsed=0:03:22.65    \nframe=  525 fps=2.6 q=48.0 size=       1KiB time=00:00:04.36 bitrate=   1.0kbits/s speed=0.0215x elapsed=0:03:23.16    \nframe=  527 fps=2.6 q=46.0 size=       1KiB time=00:00:04.38 bitrate=   1.0kbits/s speed=0.0215x elapsed=0:03:23.72    \nframe=  529 fps=2.6 q=27.0 size=       1KiB time=00:00:04.40 bitrate=   1.0kbits/s speed=0.0215x elapsed=0:03:24.28    \nframe=  533 fps=2.6 q=48.0 size=       1KiB time=00:00:04.43 bitrate=   1.0kbits/s speed=0.0216x elapsed=0:03:24.81    \nframe=  537 fps=2.6 q=35.0 size=       1KiB time=00:00:04.46 bitrate=   1.0kbits/s speed=0.0217x elapsed=0:03:25.43    \nframe=  539 fps=2.6 q=45.0 size=       1KiB time=00:00:04.46 bitrate=   1.0kbits/s speed=0.0217x elapsed=0:03:25.94    \nframe=  543 fps=2.6 q=45.0 size=       1KiB time=00:00:04.51 bitrate=   1.0kbits/s speed=0.0219x elapsed=0:03:26.49    \nframe=  545 fps=2.6 q=27.0 size=       1KiB time=00:00:04.53 bitrate=   1.0kbits/s speed=0.0219x elapsed=0:03:27.08    \nframe=  545 fps=2.6 q=27.0 size=       1KiB time=00:00:04.53 bitrate=   1.0kbits/s speed=0.0218x elapsed=0:03:27.67    \nframe=  549 fps=2.6 q=46.0 size=       1KiB time=00:00:04.55 bitrate=   1.0kbits/s speed=0.0219x elapsed=0:03:28.21    \nframe=  551 fps=2.6 q=44.0 size=       1KiB time=00:00:04.58 bitrate=   1.0kbits/s speed=0.0219x elapsed=0:03:28.83    \nframe=  553 fps=2.6 q=35.0 size=       1KiB time=00:00:04.60 bitrate=   1.0kbits/s speed=0.022x elapsed=0:03:29.40    \nframe=  553 fps=2.6 q=35.0 size=       1KiB time=00:00:04.60 bitrate=   1.0kbits/s speed=0.0219x elapsed=0:03:29.94    \nframe=  553 fps=2.6 q=35.0 size=       1KiB time=00:00:04.60 bitrate=   1.0kbits/s speed=0.0219x elapsed=0:03:30.48    \nframe=  557 fps=2.6 q=46.0 size=       1KiB time=00:00:04.63 bitrate=   1.0kbits/s speed=0.022x elapsed=0:03:31.00    \nframe=  557 fps=2.6 q=46.0 size=       1KiB time=00:00:04.63 bitrate=   1.0kbits/s speed=0.0219x elapsed=0:03:31.52    \nframe=  559 fps=2.6 q=45.0 size=       1KiB time=00:00:04.65 bitrate=   1.0kbits/s speed=0.0219x elapsed=0:03:32.04    \nframe=  563 fps=2.6 q=44.0 size=       1KiB time=00:00:04.68 bitrate=   1.0kbits/s speed=0.022x elapsed=0:03:32.55    \nframe=  565 fps=2.7 q=46.0 size=       1KiB time=00:00:04.70 bitrate=   1.0kbits/s speed=0.0221x elapsed=0:03:33.07    \nframe=  567 fps=2.7 q=44.0 size=       1KiB time=00:00:04.71 bitrate=   0.9kbits/s speed=0.0221x elapsed=0:03:33.60    \nframe=  569 fps=2.7 q=35.0 size=       1KiB time=00:00:04.73 bitrate=   0.9kbits/s speed=0.0221x elapsed=0:03:34.12    \nframe=  569 fps=2.7 q=35.0 size=       1KiB time=00:00:04.73 bitrate=   0.9kbits/s speed=0.022x elapsed=0:03:34.67    \nframe=  569 fps=2.6 q=35.0 size=       1KiB time=00:00:04.73 bitrate=   0.9kbits/s speed=0.022x elapsed=0:03:35.21    \nframe=  571 fps=2.6 q=44.0 size=       1KiB time=00:00:04.75 bitrate=   0.9kbits/s speed=0.022x elapsed=0:03:35.73    \nframe=  571 fps=2.6 q=44.0 size=       1KiB time=00:00:04.75 bitrate=   0.9kbits/s speed=0.022x elapsed=0:03:36.24    \nframe=  573 fps=2.6 q=46.0 size=       1KiB time=00:00:04.76 bitrate=   0.9kbits/s speed=0.022x elapsed=0:03:36.76    \nframe=  573 fps=2.6 q=46.0 size=       1KiB time=00:00:04.76 bitrate=   0.9kbits/s speed=0.0219x elapsed=0:03:37.27    \nframe=  575 fps=2.6 q=47.0 size=       1KiB time=00:00:04.78 bitrate=   0.9kbits/s speed=0.022x elapsed=0:03:37.80    \nframe=  577 fps=2.6 q=28.0 size=       1KiB time=00:00:04.80 bitrate=   0.9kbits/s speed=0.022x elapsed=0:03:38.31    \nframe=  577 fps=2.6 q=28.0 size=       1KiB time=00:00:04.80 bitrate=   0.9kbits/s speed=0.0219x elapsed=0:03:38.84    \nframe=  579 fps=2.6 q=44.0 size=       1KiB time=00:00:04.81 bitrate=   0.9kbits/s speed=0.022x elapsed=0:03:39.35    \nframe=  581 fps=2.6 q=47.0 size=       1KiB time=00:00:04.83 bitrate=   0.9kbits/s speed=0.022x elapsed=0:03:39.87    \nframe=  581 fps=2.6 q=47.0 size=       1KiB time=00:00:04.83 bitrate=   0.9kbits/s speed=0.0219x elapsed=0:03:40.40    \nframe=  583 fps=2.6 q=44.0 size=       1KiB time=00:00:04.85 bitrate=   0.9kbits/s speed=0.022x elapsed=0:03:40.92    \nframe=  583 fps=2.6 q=44.0 size=       1KiB time=00:00:04.85 bitrate=   0.9kbits/s speed=0.0219x elapsed=0:03:41.45    \nframe=  585 fps=2.6 q=40.0 size=       1KiB time=00:00:04.86 bitrate=   0.9kbits/s speed=0.0219x elapsed=0:03:41.98    \nframe=  585 fps=2.6 q=40.0 size=       1KiB time=00:00:04.86 bitrate=   0.9kbits/s speed=0.0219x elapsed=0:03:42.49    \nframe=  585 fps=2.6 q=40.0 size=       1KiB time=00:00:04.86 bitrate=   0.9kbits/s speed=0.0218x elapsed=0:03:43.01    \nframe=  585 fps=2.6 q=40.0 size=       1KiB time=00:00:04.86 bitrate=   0.9kbits/s speed=0.0218x elapsed=0:03:43.52    \nframe=  589 fps=2.6 q=47.0 size=       1KiB time=00:00:04.90 bitrate=   0.9kbits/s speed=0.0219x elapsed=0:03:44.04    \nframe=  589 fps=2.6 q=47.0 size=       1KiB time=00:00:04.90 bitrate=   0.9kbits/s speed=0.0218x elapsed=0:03:44.55    \nframe=  591 fps=2.6 q=44.0 size=       1KiB time=00:00:04.91 bitrate=   0.9kbits/s speed=0.0218x elapsed=0:03:45.08    \n[out#0/matroska @ 000002b9cb1090c0] video:1337KiB audio:0KiB subtitle:0KiB other streams:0KiB global headers:0KiB muxing overhead: 0.243979%\nframe=  600 fps=2.7 q=53.0 Lsize=    1340KiB time=00:00:04.99 bitrate=2199.4kbits/s speed=0.0222x elapsed=0:03:45.22    \n",
  "seconds": 225.90441060066223,
  "probe_out": {}
}